# File created by Blade
# Date/Time:  Tue Jan 27 19:18:50 2015
#---------------------------------------------------------
:version 1.10
:name HOM
:units
  mass 1.0
  length 1.000000
  angle deg
:documentation
     Acclaim Skeleton File
:root
   axis xyz
   order TX TY TZ RX RY RZ
   position 0.000000 0.000000 0.000000
   orientation 0 0 0
:bonedata
   begin
      id 1
      name Spine_dum
      direction 0.000000 1.000000 0.000000
      length 6.116652
      axis 0.0 0.0 0.0 xyz
   end
   begin
      id 2
      name LeftUpLeg_dum
      direction 1.000000 0.000000 0.000000
      length 4.711765
      axis 0.0 0.0 0.0 xyz
   end
   begin
      id 3
      name RightUpLeg_dum
      direction -1.000000 0.000000 0.000000
      length 4.711765
      axis 0.0 0.0 0.0 xyz
   end
   begin
      id 4
      name Spine
      direction 0.000000 1.000000 0.000000
      length 0.000000
      axis 0.0 0.0 0.0 xyz
      dof rx ry rz
   end
   begin
      id 5
      name Spine_dum1
      direction 0.000000 1.000000 0.000000
      length 15.225563
      axis 0.0 0.0 0.0 xyz
   end
   begin
      id 6
      name Spine_dum2
      direction 0.000000 1.000000 0.000000
      length 8.977654
      axis 0.0 0.0 0.0 xyz
   end
   begin
      id 7
      name Spine_dum3
      direction 0.000000 1.000000 0.000000
      length 8.977654
      axis 0.0 0.0 0.0 xyz
   end
   begin
      id 8
      name Head
      direction 0.000000 1.000000 0.000000
      length 4.527550
      axis 0.0 0.0 0.0 xyz
      dof rx ry rz
   end
   begin
      id 9
      name LeftShoulder
      direction 1.000000 0.000000 0.000000
      length 7.110130
      axis 0.0 0.0 -90.0 xyz
      dof rx ry rz
   end
   begin
      id 10
      name LeftArm
      direction 1.000000 0.000000 0.000000
      length 10.398341
      axis 0.0 0.0 -90.0 xyz
      dof rx ry rz
   end
   begin
      id 11
      name LeftForeArm
      direction 1.000000 0.000000 0.000000
      length 8.888997
      axis 0.0 0.0 -90.0 xyz
      dof ry rz rx
   end
   begin
      id 12
      name LeftHand
      direction 0.000000 0.000000 0.000000
      length 0.000000
      axis 0.0 0.0 -90.0 xyz
      dof rx ry rz
   end
   begin
      id 13
      name LeftHand_dum1
      direction 0.000000 0.000000 0.000000
      length 0.000000
      axis 0.0 0.0 -90.0 xyz
   end
   begin
      id 14
      name LeftHand_dum2
      direction 1.000000 0.000000 0.000000
      length 3.937000
      axis 0.0 0.0 -90.0 xyz
   end
   begin
      id 15
      name LeftHandThumb1
      direction 0.000000 0.000000 1.000000
      length 3.937000
      axis 0.0 0.0 -90.0 xyz
      dof rx rz ry
   end
   begin
      id 16
      name RightShoulder
      direction -1.000000 0.000000 0.000000
      length 7.110130
      axis 0.0 0.0 90.0 xyz
      dof rx ry rz
   end
   begin
      id 17
      name RightArm
      direction -1.000000 0.000000 0.000000
      length 10.398341
      axis 0.0 0.0 90.0 xyz
      dof rx ry rz
   end
   begin
      id 18
      name RightForeArm
      direction -1.000000 0.000000 0.000000
      length 8.888997
      axis 0.0 0.0 90.0 xyz
      dof ry rz rx
   end
   begin
      id 19
      name RightHand
      direction 0.000000 0.000000 0.000000
      length 0.000000
      axis 0.0 0.0 90.0 xyz
      dof rx ry rz
   end
   begin
      id 20
      name RightHand_dum1
      direction 0.000000 0.000000 0.000000
      length 0.000000
      axis 0.0 0.0 90.0 xyz
   end
   begin
      id 21
      name RightHand_dum2
      direction -1.000000 0.000000 0.000000
      length 3.937000
      axis 0.0 0.0 90.0 xyz
   end
   begin
      id 22
      name RightHandThumb1
      direction 0.000000 0.000000 1.000000
      length 3.937000
      axis 0.0 0.0 90.0 xyz
      dof rx rz ry
   end
   begin
      id 23
      name LeftUpLeg
      direction 0.000000 -1.000000 0.000000
      length 15.510451
      axis 0.0 0.0 0.0 xyz
      dof rx ry rz
   end
   begin
      id 24
      name LeftLeg
      direction 0.000000 -1.000000 0.000000
      length 14.858061
      axis 0.0 0.0 0.0 xyz
      dof rx ry rz
   end
   begin
      id 25
      name LeftFoot
      direction 0.000000 -0.258819 0.965926
      length 5.128852
      axis 15.0 0.0 0.0 xyz
      dof rx ry rz
   end
   begin
      id 26
      name LeftToeBase
      direction 0.000000 0.000000 1.000000
      length 2.952750
      axis 0.0 0.0 0.0 xyz
      dof rx ry rz
   end
   begin
      id 27
      name RightUpLeg
      direction 0.000000 -1.000000 0.000000
      length 15.510451
      axis 0.0 0.0 0.0 xyz
      dof rx ry rz
   end
   begin
      id 28
      name RightLeg
      direction 0.000000 -1.000000 0.000000
      length 14.858061
      axis 0.0 0.0 0.0 xyz
      dof rx ry rz
   end
   begin
      id 29
      name RightFoot
      direction 0.000000 -0.258819 0.965926
      length 5.128852
      axis 15.0 0.0 0.0 xyz
      dof rx ry rz
   end
   begin
      id 30
      name RightToeBase
      direction 0.000000 0.000000 1.000000
      length 2.952750
      axis 0.0 0.0 0.0 xyz
      dof rx ry rz
   end
:hierarchy
   begin
      root Spine_dum LeftUpLeg_dum RightUpLeg_dum
      Spine_dum Spine
      LeftUpLeg_dum LeftUpLeg
      RightUpLeg_dum RightUpLeg
      Spine Spine_dum1 Spine_dum2 Spine_dum3
      Spine_dum1 Head
      Spine_dum2 LeftShoulder
      Spine_dum3 RightShoulder
      LeftShoulder LeftArm
      LeftArm LeftForeArm
      LeftForeArm LeftHand
      LeftHand LeftHand_dum1 LeftHand_dum2
      LeftHand_dum1 LeftHandThumb1
      RightShoulder RightArm
      RightArm RightForeArm
      RightForeArm RightHand
      RightHand RightHand_dum1 RightHand_dum2
      RightHand_dum1 RightHandThumb1
      LeftUpLeg LeftLeg
      LeftLeg LeftFoot
      LeftFoot LeftToeBase
      RightUpLeg RightLeg
      RightLeg RightFoot
      RightFoot RightToeBase
   end

# File created by Blade
# Date/Time:  Tue Jan 27 19:18:41 2015
# Frame Rate: 120.000 fps
#------------------------------------------------------
:FULLY-SPECIFIED
:DEGREES
1298
root 4.076665 32.344769 1.066121 -4.029790 2.443998 0.627638
Spine 0.196859 18.387723 0.034949
Head 3.289653 -21.595437 -10.431731
LeftShoulder -3.976422 -8.299160 21.114136
LeftArm -4.739216 42.047243 -101.576455
LeftForeArm 3.009268 -0.000000 14.088299
LeftHand 10.834864 -0.000000 -5.465765
LeftHandThumb1 -26.253704 0.000000 33.147579
RightShoulder 2.482020 18.310352 -45.998190
RightArm 50.112395 24.438411 66.048097
RightForeArm 17.966211 -0.000000 27.700625
RightHand 19.666962 -0.000000 -4.522724
RightHandThumb1 -24.326973 -0.000000 -32.862282
LeftUpLeg 10.124230 -2.105422 -1.246067
LeftLeg 3.063521 -0.000000 -0.000000
LeftFoot -18.053912 13.154783 -22.997194
LeftToeBase 16.417714 -0.000000 -0.000000
RightUpLeg 10.177415 -9.663306 0.562817
RightLeg 0.244686 -0.000000 -0.000000
RightFoot -12.692422 -14.412309 14.036012
RightToeBase 10.225133 -0.000000 -0.000000
1299
root 4.075216 32.346067 1.064270 -4.011154 2.402475 0.625847
Spine 0.194250 18.370290 0.045140
Head 3.221112 -21.569035 -10.450417
LeftShoulder -3.995351 -8.299266 21.106422
LeftArm -4.718727 42.099482 -101.566451
LeftForeArm 2.889175 -0.000000 14.122931
LeftHand 11.012410 -0.000000 -5.155695
LeftHandThumb1 -26.253704 0.000000 33.147579
RightShoulder 2.568923 18.241523 -45.903655
RightArm 50.056243 24.864599 66.426431
RightForeArm 18.369578 -0.000000 29.009982
RightHand 19.805961 -0.000000 -4.971234
RightHandThumb1 -24.326973 -0.000000 -32.862282
LeftUpLeg 10.107567 -2.128543 -1.249791
LeftLeg 3.060454 -0.000000 -0.000000
LeftFoot -18.079968 13.274439 -22.861779
LeftToeBase 16.584740 -0.000000 -0.000000
RightUpLeg 10.145640 -9.665712 0.574607
RightLeg 0.233145 -0.000000 -0.000000
RightFoot -12.527387 -14.422979 13.792940
RightToeBase 9.758604 -0.000000 -0.000000
1300
root 4.075403 32.347098 1.062860 -3.996256 2.363381 0.628721
Spine 0.196361 18.340833 0.050156
Head 3.154070 -21.515474 -10.464569
LeftShoulder -4.021599 -8.349442 21.109354
LeftArm -4.784470 42.148289 -101.619659
LeftForeArm 2.885406 -0.000000 14.178117
LeftHand 11.039279 0.000000 -5.122777
LeftHandThumb1 -26.253704 0.000000 33.147579
RightShoulder 2.650618 18.264001 -45.792945
RightArm 49.954495 25.326257 66.897121
RightForeArm 18.457007 0.000000 30.372878
RightHand 20.036655 -0.000000 -5.257368
RightHandThumb1 -24.326973 -0.000000 -32.862282
LeftUpLeg 10.093388 -2.125345 -1.257170
LeftLeg 3.064249 -0.000000 -0.000000
LeftFoot -18.086157 13.304593 -22.871618
LeftToeBase 16.655265 -0.000000 -0.000000
RightUpLeg 10.120582 -9.650268 0.574368
RightLeg 0.236079 -0.000000 -0.000000
RightFoot -12.500848 -14.410793 13.763806
RightToeBase 9.725908 -0.000000 -0.000000
1301
root 4.075228 32.348163 1.058852 -3.966525 2.315354 0.622613
Spine 0.191963 18.347215 0.064442
Head 3.071601 -21.472293 -10.471597
LeftShoulder -4.043121 -8.371932 21.102528
LeftArm -4.779610 42.221402 -101.631282
LeftForeArm 2.881257 -0.000000 14.199272
LeftHand 11.061803 -0.000000 -5.149776
LeftHandThumb1 -26.253704 0.000000 33.147579
RightShoulder 2.699886 18.344330 -45.681140
RightArm 49.758949 25.738764 67.302188
RightForeArm 18.656825 -0.000000 31.823600
RightHand 20.319867 -0.000000 -5.515646
RightHandThumb1 -24.326973 -0.000000 -32.862282
LeftUpLeg 10.055955 -2.125223 -1.256477
LeftLeg 3.085117 -0.000000 -0.000000
LeftFoot -18.107626 13.340767 -22.884794
LeftToeBase 16.537296 -0.000000 -0.000000
RightUpLeg 10.069407 -9.616490 0.588065
RightLeg 0.249316 -0.000000 -0.000000
RightFoot -12.484858 -14.401413 13.758593
RightToeBase 9.725766 -0.000000 -0.000000
1302
root 4.074579 32.349138 1.058231 -3.958504 2.272969 0.618581
Spine 0.207635 18.319481 0.081576
Head 2.989116 -21.439833 -10.490810
LeftShoulder -4.083568 -8.366254 21.097262
LeftArm -4.762301 42.261498 -101.619836
LeftForeArm 2.901643 0.000000 14.234188
LeftHand 11.063566 -0.000000 -5.101025
LeftHandThumb1 -26.253704 0.000000 33.147579
RightShoulder 2.753911 18.311643 -45.566186
RightArm 49.713704 26.206905 67.823764
RightForeArm 18.752672 -0.000000 33.366843
RightHand 20.672462 -0.000000 -5.887349
RightHandThumb1 -24.326973 -0.000000 -32.862282
LeftUpLeg 10.053132 -2.131684 -1.256349
LeftLeg 3.079269 -0.000000 -0.000000
LeftFoot -18.124284 13.379704 -22.923488
LeftToeBase 16.626821 -0.000000 -0.000000
RightUpLeg 10.054515 -9.563480 0.600027
RightLeg 0.248444 -0.000000 -0.000000
RightFoot -12.481476 -14.406432 13.769697
RightToeBase 9.776870 -0.000000 -0.000000
1303
root 4.073532 32.349887 1.056546 -3.937270 2.234368 0.619438
Spine 0.211079 18.311911 0.082921
Head 2.892914 -21.408369 -10.488894
LeftShoulder -4.105489 -8.364624 21.097630
LeftArm -4.741528 42.295680 -101.607075
LeftForeArm 2.948177 -0.000000 14.280290
LeftHand 11.028436 -0.000000 -5.002077
LeftHandThumb1 -26.253704 0.000000 33.147579
RightShoulder 2.770931 18.135077 -45.426849
RightArm 49.837864 26.697464 68.387319
RightForeArm 18.811317 -0.000000 34.923678
RightHand 21.100683 -0.000000 -6.191648
RightHandThumb1 -24.326973 -0.000000 -32.862282
LeftUpLeg 10.032554 -2.160063 -1.264965
LeftLeg 3.083981 -0.000000 -0.000000
LeftFoot -18.133080 13.441320 -22.928234
LeftToeBase 16.598150 -0.000000 -0.000000
RightUpLeg 10.008816 -9.494870 0.611521
RightLeg 0.277102 -0.000000 -0.000000
RightFoot -12.482707 -14.422230 13.790646
RightToeBase 9.753223 -0.000000 -0.000000
1304
root 4.073831 32.350076 1.054869 -3.918670 2.207511 0.615954
Spine 0.217985 18.292285 0.096135
Head 2.801864 -21.381954 -10.504224
LeftShoulder -4.122326 -8.344886 21.100615
LeftArm -4.708812 42.293207 -101.589874
LeftForeArm 3.027213 -0.000000 14.341227
LeftHand 10.888966 -0.000000 -5.610814
LeftHandThumb1 -26.253704 0.000000 33.147579
RightShoulder 2.781250 18.065399 -45.292723
RightArm 49.866963 27.135858 68.895332
RightForeArm 18.817084 -0.000000 36.488421
RightHand 21.385330 0.000000 -6.229439
RightHandThumb1 -24.326973 -0.000000 -32.862282
LeftUpLeg 10.021445 -2.130609 -1.260755
LeftLeg 3.074990 -0.000000 -0.000000
LeftFoot -18.123940 13.378736 -23.091816
LeftToeBase 16.354939 -0.000000 -0.000000
RightUpLeg 9.984924 -9.495921 0.614938
RightLeg 0.273007 -0.000000 -0.000000
RightFoot -12.463189 -14.400979 13.775017
RightToeBase 9.731215 -0.000000 -0.000000
1305
root 4.073861 32.349859 1.055039 -3.916563 2.179904 0.614115
Spine 0.249404 18.257753 0.114075
Head 2.686136 -21.347722 -10.508097
LeftShoulder -4.160487 -8.339467 21.103947
LeftArm -4.726025 42.326409 -101.589927
LeftForeArm 3.041417 -0.000000 14.450157
LeftHand 10.768317 -0.000000 -5.503499
LeftHandThumb1 -26.253704 0.000000 33.147579
RightShoulder 2.781644 17.993457 -45.173982
RightArm 49.909132 27.513304 69.370612
RightForeArm 18.614718 0.000000 38.107136
RightHand 21.508816 -0.000000 -6.704371
RightHandThumb1 -24.326973 -0.000000 -32.862282
LeftUpLeg 10.025881 -2.110581 -1.258521
LeftLeg 3.064191 -0.000000 -0.000000
LeftFoot -18.126249 13.456435 -22.912406
LeftToeBase 16.561573 -0.000000 -0.000000
RightUpLeg 9.979758 -9.482510 0.617675
RightLeg 0.271919 -0.000000 -0.000000
RightFoot -12.463862 -14.394244 13.769185
RightToeBase 9.741647 -0.000000 -0.000000
1306
root 4.075849 32.348496 1.053730 -3.890031 2.138615 0.630435
Spine 0.251353 18.244791 0.098210
Head 2.571888 -21.307705 -10.486578
LeftShoulder -4.182537 -8.329512 21.133706
LeftArm -4.724007 42.280922 -101.606136
LeftForeArm 3.132235 -0.000000 14.509237
LeftHand 10.818822 -0.000000 -4.020143
LeftHandThumb1 -26.253704 0.000000 33.147579
RightShoulder 2.885637 17.640111 -45.192294
RightArm 50.029485 28.127932 70.050826
RightForeArm 18.462229 -0.000000 39.948644
RightHand 21.671620 -0.000000 -7.102975
RightHandThumb1 -24.326973 -0.000000 -32.862282
LeftUpLeg 10.006400 -2.120541 -1.284405
LeftLeg 3.059411 -0.000000 -0.000000
LeftFoot -18.160637 13.497309 -22.943987
LeftToeBase 16.653608 -0.000000 -0.000000
RightUpLeg 9.953786 -9.425459 0.602531
RightLeg 0.259409 -0.000000 -0.000000
RightFoot -12.486213 -14.359382 13.821118
RightToeBase 9.743957 -0.000000 -0.000000
1307
root 4.076890 32.348823 1.053970 -3.885552 2.100194 0.616184
Spine 0.266514 18.249527 0.138019
Head 2.515402 -21.299043 -10.520266
LeftShoulder -4.172438 -8.296682 21.143974
LeftArm -4.682711 42.220971 -101.594826
LeftForeArm 2.992430 -0.000000 14.543512
LeftHand 10.782963 -0.000000 -5.429655
LeftHandThumb1 -26.253704 0.000000 33.147579
RightShoulder 2.871932 17.624811 -45.059334
RightArm 49.956324 28.429353 70.433571
RightForeArm 18.378441 -0.000000 41.646158
RightHand 21.918235 -0.000000 -7.439947
RightHandThumb1 -24.326973 -0.000000 -32.862282
LeftUpLeg 10.013178 -2.092276 -1.269960
LeftLeg 3.048488 -0.000000 -0.000000
LeftFoot -18.169948 13.494073 -22.950811
LeftToeBase 16.627771 -0.000000 -0.000000
RightUpLeg 9.947522 -9.399670 0.622141
RightLeg 0.248194 -0.000000 -0.000000
RightFoot -12.462254 -14.387752 13.788988
RightToeBase 9.775224 -0.000000 -0.000000
1308
root 4.077063 32.348471 1.052246 -3.865438 2.083910 0.614698
Spine 0.263344 18.208356 0.140371
Head 2.455842 -21.234639 -10.519790
LeftShoulder -4.168510 -8.332186 21.183038
LeftArm -4.735811 42.129075 -101.662691
LeftForeArm 3.012173 -0.000000 14.555099
LeftHand 10.812068 -0.000000 -5.320853
LeftHandThumb1 -26.253704 0.000000 33.147579
RightShoulder 2.896501 17.110575 -44.942533
RightArm 50.472897 28.966797 71.211912
RightForeArm 18.168799 0.000000 43.369572
RightHand 22.204928 -0.000000 -7.839462
RightHandThumb1 -24.326973 -0.000000 -32.862282
LeftUpLeg 9.997446 -2.068514 -1.266231
LeftLeg 3.035337 -0.000000 -0.000000
LeftFoot -18.144429 13.508773 -22.910577
LeftToeBase 16.558130 -0.000000 -0.000000
RightUpLeg 9.915294 -9.376023 0.625013
RightLeg 0.275752 -0.000000 -0.000000
RightFoot -12.587969 -14.367733 13.984681
RightToeBase 10.161507 -0.000000 -0.000000
1309
root 4.077534 32.348172 1.052954 -3.855576 2.062541 0.617760
Spine 0.267278 18.183792 0.143651
Head 2.406238 -21.202411 -10.525275
LeftShoulder -4.174955 -8.309761 21.215543
LeftArm -4.693843 42.072154 -101.660471
LeftForeArm 3.005228 0.000000 14.559877
LeftHand 10.846194 -0.000000 -5.421471
LeftHandThumb1 -26.253704 0.000000 33.147579
RightShoulder 2.957348 16.992897 -44.822643
RightArm 50.432483 29.373611 71.738898
RightForeArm 18.179069 -0.000000 45.250830
RightHand 22.627844 -0.000000 -8.227636
RightHandThumb1 -24.326973 -0.000000 -32.862282
LeftUpLeg 9.999439 -2.044791 -1.267988
LeftLeg 3.020196 -0.000000 -0.000000
LeftFoot -18.138934 13.498681 -22.913134
LeftToeBase 16.528060 -0.000000 -0.000000
RightUpLeg 9.915212 -9.398607 0.621958
RightLeg 0.238171 -0.000000 -0.000000
RightFoot -12.444239 -14.366433 13.754463
RightToeBase 9.730308 -0.000000 -0.000000
